<svg xmlns="http://www.w3.org/2000/svg" viewBox="0 0 64 64">
  <!-- Genie lamp / Magic lamp favicon -->
  <ellipse cx="32" cy="52" rx="22" ry="6" fill="#c4872a"/>
  <path d="M14 46 C14 46 12 52 32 52 52 52 50 46 50 46 Z" fill="#e8a84c"/>
  <ellipse cx="32" cy="46" rx="18" ry="10" fill="#f5c97a"/>
  <ellipse cx="32" cy="44" rx="16" ry="8" fill="#e8a84c"/>
  <path d="M28 36 C28 30 22 28 22 22 C22 14 28 10 34 10 C36 10 38 11 38 13 L36 14 C36 12 35 12 34 12 C30 12 26 15 26 22 C26 26 30 28 30 34 Z" fill="#f5d080"/>
  <circle cx="34" cy="10" r="3" fill="#f5d080"/>
  <!-- Sparkle -->
  <circle cx="20" cy="18" r="1.5" fill="#fff" opacity="0.7"/>
  <circle cx="16" cy="14" r="1" fill="#fff" opacity="0.5"/>
  <circle cx="24" cy="12" r="1" fill="#fff" opacity="0.6"/>
</svg>
